<svg version="1.1" id="Layer_1" xmlns="http://www.w3.org/2000/svg" xmlns:xlink="http://www.w3.org/1999/xlink" width="24" height="24" viewBox="0 0 24 24" enable-background="new 0 0 1920 1797" xml:space="preserve">
<path fill="#FFFFFF" opacity="1.000000" stroke="none" 
	d="
M1663.000000,0.999990 
	C1719.022705,1.000000 1775.045288,1.000000 1831.463867,1.331391 
	C1827.358643,6.491484 1822.842896,11.306677 1818.359253,16.151527 
	C1801.991699,33.837875 1785.631592,51.531078 1769.274658,69.227257 
	C1753.021484,86.811073 1736.782715,104.408073 1720.524658,121.987228 
	C1708.061279,135.463440 1695.573120,148.916672 1683.104004,162.387482 
	C1666.536133,180.286575 1649.982544,198.198944 1633.410522,216.094116 
	C1620.684448,229.836395 1607.933472,243.555588 1595.204346,257.295166 
	C1586.991333,266.160217 1578.809937,275.054596 1570.593018,283.915924 
	C1557.707275,297.811859 1544.783569,311.672363 1531.912964,325.582184 
	C1515.800659,342.995361 1499.752686,360.468079 1483.626587,377.868469 
	C1470.065674,392.500977 1456.390991,407.028198 1442.842285,421.671906 
	C1427.418091,438.342224 1412.111938,455.121704 1396.691895,471.795959 
	C1379.341187,490.558044 1361.905640,509.241974 1344.535278,527.985962 
	C1332.596313,540.868958 1320.721802,553.811646 1308.789307,566.700562 
	C1291.739502,585.116882 1274.711304,603.553772 1257.583496,621.897339 
	C1241.639648,638.972717 1225.478149,655.845520 1209.598877,672.980103 
	C1196.595093,687.011719 1183.945679,701.371155 1170.989624,715.447571 
	C1160.104248,727.274353 1149.003174,738.902588 1137.740601,750.892334 
	C1141.506348,756.102051 1145.191406,761.374634 1149.055908,766.512085 
	C1158.996704,779.727173 1169.052002,792.856079 1178.994507,806.069885 
	C1187.271362,817.069946 1195.448364,828.145203 1203.677734,839.181030 
	C1213.117798,851.840271 1222.578247,864.484375 1232.008911,877.150574 
	C1240.036743,887.932922 1247.960938,898.793213 1256.065063,909.517700 
	C1266.922485,923.885681 1278.006348,938.082947 1288.816406,952.486084 
	C1303.225342,971.684448 1317.420288,991.043335 1331.789673,1010.271667 
	C1344.113892,1026.763184 1356.600220,1043.133423 1368.928833,1059.621826 
	C1380.294800,1074.822632 1391.536133,1090.116577 1402.851318,1105.355469 
	C1412.530884,1118.391357 1422.239014,1131.406128 1431.931763,1144.432251 
	C1439.664551,1154.824707 1447.345825,1165.255981 1455.135864,1175.605347 
	C1466.570068,1190.796265 1478.118652,1205.901245 1489.546021,1221.097534 
	C1497.231323,1231.317749 1504.761108,1241.654785 1512.414551,1251.899292 
	C1524.922119,1268.641724 1537.487061,1285.341187 1550.002441,1302.077759 
	C1560.212524,1315.731201 1570.384766,1329.412964 1580.574707,1343.081299 
	C1593.058716,1359.826782 1605.546875,1376.569092 1618.027222,1393.317383 
	C1624.028809,1401.371582 1629.989746,1409.456299 1636.016602,1417.491455 
	C1646.128174,1430.972534 1656.309326,1444.401733 1666.400269,1457.898193 
	C1673.016479,1466.747192 1679.465942,1475.721069 1686.096558,1484.558960 
	C1696.018799,1497.784058 1706.062378,1510.917847 1716.002441,1524.129761 
	C1724.280518,1535.132568 1732.482300,1546.192871 1740.721069,1557.225464 
	C1753.150513,1573.870117 1765.591797,1590.505859 1778.011230,1607.157959 
	C1790.017944,1623.256958 1801.953613,1639.409302 1814.011230,1655.470215 
	C1828.368774,1674.594604 1842.859131,1693.619385 1857.225342,1712.737305 
	C1874.159302,1735.272339 1891.033081,1757.852417 1907.905273,1780.433594 
	C1910.998047,1784.572876 1914.713257,1788.489624 1916.690796,1793.127441 
	C1917.843018,1795.829590 1918.541748,1796.502075 1921.000000,1796.000000 
	C1920.667358,1796.666626 1920.453491,1797.783936 1919.978271,1797.909180 
	C1918.888184,1798.196533 1917.670654,1798.000000 1916.504883,1798.000000 
	C1726.980591,1798.000000 1537.456299,1798.000000 1347.774536,1797.689697 
	C1346.912598,1795.584106 1346.552368,1793.536743 1345.450928,1792.031860 
	C1333.313843,1775.449219 1321.144165,1758.888916 1308.814941,1742.448853 
	C1298.663818,1728.912964 1288.222534,1715.594849 1278.029541,1702.089966 
	C1269.741455,1691.108765 1261.646729,1679.981934 1253.437988,1668.940674 
	C1240.951782,1652.146118 1228.455811,1635.359131 1215.935913,1618.589844 
	C1207.790283,1607.679565 1199.631958,1596.778198 1191.411377,1585.924316 
	C1182.693115,1574.413452 1173.773560,1563.053467 1165.160400,1551.465210 
	C1153.364380,1535.594360 1141.910767,1519.468384 1130.060425,1503.638916 
	C1116.258423,1485.202393 1102.111450,1467.024658 1088.253296,1448.629883 
	C1074.612061,1430.523193 1061.175293,1412.262817 1047.593872,1394.111084 
	C1031.579102,1372.707153 1015.481140,1351.365601 999.465759,1329.962036 
	C988.794189,1315.700195 978.234680,1301.354370 967.569275,1287.087891 
	C954.570557,1269.700317 941.490601,1252.373535 928.487366,1234.989258 
	C913.747498,1215.283081 899.070251,1195.530029 884.333252,1175.821777 
	C876.255920,1165.019653 868.054810,1154.309814 860.013367,1143.481201 
	C851.717346,1132.309814 843.583679,1121.018066 835.307373,1109.832031 
	C831.018982,1104.035889 826.575562,1098.354492 822.135071,1092.533325 
	C821.149475,1093.430542 820.624390,1093.841064 820.178284,1094.324463 
	C804.428772,1111.392456 788.696960,1128.476685 772.939453,1145.537231 
	C764.174805,1155.026733 755.358704,1164.468750 746.583923,1173.948975 
	C726.133484,1196.043579 705.697266,1218.151245 685.248779,1240.247559 
	C672.640320,1253.872070 660.008240,1267.474854 647.407349,1281.106323 
	C631.389160,1298.434814 615.408997,1315.798462 599.379761,1333.116699 
	C586.345642,1347.198853 573.243530,1361.217896 560.207275,1375.297974 
	C543.985840,1392.818237 527.819519,1410.389526 511.596161,1427.908081 
	C494.458984,1446.413208 477.283051,1464.882446 460.123413,1483.366821 
	C451.297424,1492.874023 442.454254,1502.365479 433.646301,1511.889404 
	C413.507111,1533.665649 393.390320,1555.462646 373.254547,1577.241943 
	C352.638153,1599.540527 332.013336,1621.831299 311.385773,1644.119507 
	C294.706482,1662.141357 278.012848,1680.149902 261.334290,1698.172363 
	C249.055908,1711.439819 236.842102,1724.767456 224.508057,1737.982910 
	C209.143219,1754.445557 193.631271,1770.771362 178.310623,1787.274780 
	C175.245743,1790.576294 172.755325,1794.411133 170.000000,1798.000000 
	C115.000008,1798.000000 60.000004,1798.007080 5.000057,1797.958130 
	C3.666402,1797.957031 2.333320,1797.333374 1.299260,1796.787842 
	C6.766566,1791.186646 12.001852,1785.860352 17.090364,1780.397339 
	C34.393208,1761.821777 51.661171,1743.213379 68.909164,1724.586792 
	C80.701065,1711.852417 92.405212,1699.036621 104.206543,1686.311035 
	C121.949348,1667.178711 139.760254,1648.109619 157.506393,1628.980347 
	C164.741974,1621.180664 171.844482,1613.257568 179.076401,1605.454346 
	C192.522461,1590.945801 206.039612,1576.503052 219.486221,1561.994995 
	C226.718369,1554.192017 233.829102,1546.276611 241.058502,1538.471191 
	C258.394348,1519.754395 275.749878,1501.055664 293.136261,1482.385864 
	C299.338348,1475.726074 305.734772,1469.246460 311.900208,1462.553589 
	C334.306183,1438.230225 356.640442,1413.840698 379.024963,1389.497559 
	C391.110535,1376.354614 403.220032,1363.233276 415.359436,1350.140015 
	C436.947388,1326.855835 458.576141,1303.609375 480.166779,1280.327759 
	C487.902679,1271.985840 495.555725,1263.567383 503.285217,1255.219604 
	C520.334290,1236.806763 537.418091,1218.425903 554.466858,1200.012817 
	C562.034302,1191.839722 569.526611,1183.597168 577.096497,1175.426392 
	C590.249207,1161.229736 603.453735,1147.080933 616.603821,1132.881714 
	C632.826111,1115.365234 649.001343,1097.805176 665.222351,1080.287598 
	C678.295105,1066.169922 691.374634,1052.058228 704.509766,1037.998779 
	C715.145203,1026.615112 725.897583,1015.340637 736.535400,1003.959167 
	C740.172302,1000.067993 743.618652,995.998718 747.241028,991.910461 
	C745.072632,989.205017 742.962769,986.731567 741.026184,984.129089 
	C731.847656,971.794434 722.734375,959.411377 713.563965,947.070679 
	C702.048462,931.574097 690.513550,916.091919 678.960876,900.622986 
	C670.814148,889.714661 662.619568,878.842163 654.454468,867.947571 
	C643.963745,853.949890 633.460022,839.962036 623.001038,825.940674 
	C611.938477,811.110046 600.966309,796.211792 589.873596,781.403931 
	C576.954773,764.158264 563.895935,747.017578 550.996460,729.757568 
	C541.306519,716.791992 531.832825,703.664978 522.152832,690.691833 
	C511.081848,675.854492 499.880005,661.114807 488.752472,646.319580 
	C480.668823,635.571533 472.600800,624.811707 464.548798,614.039917 
	C453.013153,598.607849 441.524567,583.140442 429.967346,567.724609 
	C418.566559,552.517456 407.088959,537.367981 395.675049,522.170654 
	C383.709869,506.239349 371.724915,490.322357 359.853210,474.321503 
	C350.796356,462.114502 341.999603,449.714172 332.911987,437.530457 
	C321.618958,422.389984 310.118622,407.404327 298.758636,392.313538 
	C289.795898,380.407288 280.933960,368.425232 271.983856,356.509430 
	C261.349213,342.350891 250.631409,328.254669 240.021408,314.077759 
	C233.914932,305.918365 228.020355,297.600342 221.906021,289.446991 
	C211.987823,276.221313 201.925629,263.103607 192.001251,249.882507 
	C180.820312,234.987427 169.724533,220.028442 158.591858,205.097122 
	C147.050964,189.618271 135.518463,174.133179 123.967171,158.662109 
	C111.948524,142.565079 99.951164,126.451920 87.873184,110.399475 
	C72.351585,89.770241 56.697708,69.240341 41.216747,48.580780 
	C29.384489,32.790462 17.732292,16.865223 6.000000,1.000000 
	C196.355957,1.000000 386.711914,1.000000 577.244995,1.292688 
	C578.439819,3.053242 579.412903,4.554453 580.481934,5.983845 
	C591.981934,21.359791 603.511414,36.713688 615.003967,52.095181 
	C626.153015,67.016983 637.259216,81.970779 648.401123,96.897972 
	C659.929871,112.343552 671.479614,127.773399 683.018738,143.211243 
	C694.173889,158.135345 705.275513,173.099808 716.495422,187.975021 
	C728.215637,203.513519 740.174133,218.873474 751.801331,234.480637 
	C766.590088,254.331589 781.041809,274.433807 795.840515,294.277191 
	C810.380981,313.774231 825.223022,333.046051 839.842590,352.484528 
	C854.567993,372.063843 869.188538,391.722168 883.843994,411.354126 
	C896.243652,427.964111 908.656067,444.564758 921.010254,461.208618 
	C933.386841,477.882690 945.645203,494.644653 958.054932,511.293884 
	C968.345825,525.100342 978.792725,538.790283 989.149414,552.547791 
	C998.312744,564.719910 1007.464905,576.900513 1016.589600,589.101562 
	C1028.083740,604.471008 1039.535767,619.871948 1051.025879,635.244446 
	C1054.719849,640.186707 1058.477051,645.081787 1062.410522,650.268921 
	C1064.256592,648.721924 1066.015259,647.538940 1067.418457,646.026062 
	C1079.109009,633.421448 1090.718018,620.741394 1102.382690,608.112671 
	C1118.819092,590.317932 1135.277954,572.543945 1151.734619,554.768066 
	C1164.374390,541.115173 1177.034546,527.481262 1189.669556,513.824036 
	C1205.969971,496.204865 1222.243164,478.560425 1238.549072,460.946381 
	C1251.310547,447.161255 1264.126343,433.426636 1276.877197,419.631836 
	C1292.718018,402.494232 1308.486084,385.289429 1324.342896,368.166687 
	C1337.861572,353.568787 1351.480103,339.063416 1365.019409,324.484619 
	C1377.426025,311.125641 1389.781738,297.719543 1402.167236,284.340973 
	C1414.750732,270.748444 1427.352295,257.172607 1439.928223,243.573105 
	C1447.681030,235.189194 1455.382690,226.758057 1463.139160,218.377655 
	C1475.975098,204.509293 1488.854248,190.680878 1501.680420,176.803619 
	C1508.866333,169.028854 1515.921143,161.132385 1523.142700,153.391327 
	C1538.191650,137.259628 1553.310181,121.192818 1568.404053,105.103058 
	C1578.778687,94.043938 1589.222412,83.048935 1599.523193,71.921577 
	C1614.641357,55.590088 1629.646240,39.153885 1644.727295,22.787989 
	C1649.681763,17.411373 1654.809692,12.191853 1659.670166,6.732928 
	C1661.110107,5.115788 1661.907959,2.926893 1663.000000,0.999990 
M584.031372,568.367065 
	C588.015137,573.514282 592.075745,578.604187 595.966797,583.820557 
	C604.191284,594.846130 612.305664,605.953918 620.505188,616.998230 
	C629.988647,629.772034 639.520691,642.509644 649.021118,655.270935 
	C656.979980,665.961426 664.888672,676.689453 672.882385,687.353760 
	C683.961487,702.134033 695.101868,716.868286 706.210999,731.626038 
	C714.400330,742.505066 722.593201,753.381592 730.763733,764.274841 
	C740.704163,777.527710 750.648499,790.777954 760.542725,804.065308 
	C768.082397,814.190735 775.459778,824.437805 783.065002,834.513245 
	C793.915100,848.887573 804.979248,863.100342 815.815979,877.484619 
	C824.238281,888.664062 832.422424,900.022522 840.766846,911.260986 
	C852.157471,926.602112 863.597656,941.906494 875.020996,957.223328 
	C883.157227,968.132751 891.298584,979.038391 899.442200,989.942322 
	C908.963867,1002.691345 918.501404,1015.428589 928.011536,1028.186157 
	C936.047485,1038.966187 944.000732,1049.808105 952.086792,1060.550293 
	C963.008667,1075.059814 974.110901,1089.434082 984.970337,1103.989746 
	C994.447571,1116.692505 1003.597107,1129.639893 1013.071960,1142.344604 
	C1023.276306,1156.027344 1033.734009,1169.520996 1044.001099,1183.157227 
	C1054.232422,1196.746094 1064.369751,1210.405640 1074.538330,1224.041748 
	C1085.041504,1238.126709 1095.536377,1252.217896 1106.027466,1266.311890 
	C1113.960938,1276.969971 1121.807861,1287.693481 1129.827148,1298.286499 
	C1141.774658,1314.068481 1153.920654,1329.700439 1165.831177,1345.510132 
	C1176.277100,1359.375732 1186.492554,1373.414673 1196.850342,1387.347046 
	C1209.217041,1403.981934 1221.626587,1420.584839 1234.018188,1437.201294 
	C1242.153320,1448.110229 1250.289673,1459.018311 1258.424805,1469.927246 
	C1267.957886,1482.710815 1277.490845,1495.494629 1287.022705,1508.279175 
	C1295.062622,1519.062256 1303.079346,1529.862549 1311.144897,1540.626221 
	C1322.122192,1555.275391 1333.184814,1569.860962 1344.119995,1584.541382 
	C1353.498291,1597.131348 1362.690674,1609.859741 1372.070801,1622.448242 
	C1384.004028,1638.463135 1396.033569,1654.406128 1408.046143,1670.361572 
	C1410.289429,1673.341064 1412.784180,1675.131836 1417.087158,1675.123291 
	C1500.586304,1674.957031 1584.085938,1675.000000 1667.585449,1675.000000 
	C1669.336304,1675.000000 1671.087158,1675.000000 1673.354858,1675.000000 
	C1672.815186,1673.483154 1672.689209,1672.490845 1672.174438,1671.780029 
	C1666.670410,1664.178711 1661.174927,1656.569580 1655.541626,1649.064087 
	C1643.256104,1632.695435 1630.828247,1616.433472 1618.582642,1600.035278 
	C1610.356079,1589.019287 1602.455078,1577.759521 1594.207642,1566.759277 
	C1580.588745,1548.594604 1566.745239,1530.598267 1553.111572,1512.444458 
	C1538.572021,1493.083984 1524.170410,1473.619995 1509.700684,1454.207031 
	C1497.120850,1437.329590 1484.506592,1420.477539 1471.951904,1403.581177 
	C1462.584473,1390.974609 1453.360107,1378.261108 1443.940430,1365.693970 
	C1433.703491,1352.036499 1423.260620,1338.533569 1413.006226,1324.888916 
	C1402.887695,1311.424927 1392.943115,1297.830322 1382.830078,1284.362305 
	C1372.287476,1270.322266 1361.565308,1256.416992 1351.052490,1242.354858 
	C1342.920776,1231.477661 1335.103271,1220.365234 1326.947388,1209.506592 
	C1312.047852,1189.669312 1296.920776,1170.002441 1282.044434,1150.147827 
	C1272.541992,1137.465454 1263.398560,1124.514526 1253.949829,1111.791138 
	C1243.684692,1097.968506 1233.244385,1084.276123 1222.895264,1070.515747 
	C1211.691772,1055.619385 1200.479736,1040.729126 1189.319336,1025.800415 
	C1179.795166,1013.060425 1170.345825,1000.264404 1160.850342,987.502930 
	C1152.919434,976.844055 1145.023438,966.158447 1137.015137,955.557983 
	C1126.063599,941.061646 1114.936768,926.697510 1104.036865,912.162659 
	C1089.829468,893.217407 1075.803467,874.136292 1061.638794,855.158875 
	C1049.135864,838.407837 1036.531006,821.732849 1024.006958,804.997559 
	C1015.759521,793.977051 1007.587708,782.899963 999.360107,771.864502 
	C987.912231,756.509705 976.447510,741.167358 964.983032,725.824951 
	C955.743591,713.460144 946.535950,701.071167 937.237000,688.751099 
	C926.586670,674.640686 915.793762,660.637695 905.170837,646.506897 
	C896.686707,635.221191 888.376282,623.805115 879.967468,612.462708 
	C867.627686,595.817993 855.299866,579.164185 842.908447,562.557861 
	C832.729858,548.916992 822.442932,535.356995 812.245972,521.729858 
	C799.801270,505.098755 787.405945,488.430725 774.979004,471.786377 
	C763.832275,456.856567 752.667175,441.940552 741.518738,427.012024 
	C731.999573,414.265137 722.488892,401.511902 712.981323,388.756348 
	C704.944153,377.973572 696.981384,367.134705 688.869629,356.408386 
	C678.006409,342.043701 666.961365,327.816284 656.126648,313.430267 
	C647.729980,302.281433 639.593079,290.937317 631.238525,279.756409 
	C619.885376,264.562561 608.377197,249.484528 597.041626,234.277664 
	C584.952576,218.059906 573.068176,201.689316 560.946899,185.495911 
	C546.445740,166.123123 531.700195,146.932465 517.310364,127.478157 
	C515.518921,125.056213 514.042603,123.945892 511.071747,123.948158 
	C426.572296,124.012527 342.072784,123.997948 257.573303,124.017914 
	C256.184937,124.018242 254.796631,124.287056 252.424164,124.532310 
	C254.688965,127.643700 256.347137,129.936661 258.020721,132.218338 
	C267.399078,145.004410 276.677521,157.865463 286.190155,170.550888 
	C296.341187,184.087631 306.785614,197.404083 316.970001,210.916138 
	C326.226471,223.197037 335.252106,235.651749 344.476898,247.956802 
	C355.782135,263.036957 367.254242,277.992218 378.529694,293.094482 
	C386.754089,304.110107 394.656799,315.366608 402.918518,326.353607 
	C414.814850,342.174164 426.990967,357.784302 438.889893,373.602905 
	C449.200867,387.310394 459.260254,401.206818 469.488770,414.976654 
	C481.970306,431.779602 494.516205,448.534668 507.026703,465.316071 
	C513.030273,473.369141 518.989258,481.455597 525.016541,489.490784 
	C536.101196,504.268036 547.207825,519.028870 558.331360,533.776855 
	C566.856323,545.079590 575.421387,556.352173 584.031372,568.367065 
z"/>
<path fill="#000000" opacity="1.000000" stroke="none" 
	d="
M1921.000000,1795.531372 
	C1918.541748,1796.502075 1917.843018,1795.829590 1916.690796,1793.127441 
	C1914.713257,1788.489624 1910.998047,1784.572876 1907.905273,1780.433594 
	C1891.033081,1757.852417 1874.159302,1735.272339 1857.225342,1712.737305 
	C1842.859131,1693.619385 1828.368774,1674.594604 1814.011230,1655.470215 
	C1801.953613,1639.409302 1790.017944,1623.256958 1778.011230,1607.157959 
	C1765.591797,1590.505859 1753.150513,1573.870117 1740.721069,1557.225464 
	C1732.482300,1546.192871 1724.280518,1535.132568 1716.002441,1524.129761 
	C1706.062378,1510.917847 1696.018799,1497.784058 1686.096558,1484.558960 
	C1679.465942,1475.721069 1673.016479,1466.747192 1666.400269,1457.898193 
	C1656.309326,1444.401733 1646.128174,1430.972534 1636.016602,1417.491455 
	C1629.989746,1409.456299 1624.028809,1401.371582 1618.027222,1393.317383 
	C1605.546875,1376.569092 1593.058716,1359.826782 1580.574707,1343.081299 
	C1570.384766,1329.412964 1560.212524,1315.731201 1550.002441,1302.077759 
	C1537.487061,1285.341187 1524.922119,1268.641724 1512.414551,1251.899292 
	C1504.761108,1241.654785 1497.231323,1231.317749 1489.546021,1221.097534 
	C1478.118652,1205.901245 1466.570068,1190.796265 1455.135864,1175.605347 
	C1447.345825,1165.255981 1439.664551,1154.824707 1431.931763,1144.432251 
	C1422.239014,1131.406128 1412.530884,1118.391357 1402.851318,1105.355469 
	C1391.536133,1090.116577 1380.294800,1074.822632 1368.928833,1059.621826 
	C1356.600220,1043.133423 1344.113892,1026.763184 1331.789673,1010.271667 
	C1317.420288,991.043335 1303.225342,971.684448 1288.816406,952.486084 
	C1278.006348,938.082947 1266.922485,923.885681 1256.065063,909.517700 
	C1247.960938,898.793213 1240.036743,887.932922 1232.008911,877.150574 
	C1222.578247,864.484375 1213.117798,851.840271 1203.677734,839.181030 
	C1195.448364,828.145203 1187.271362,817.069946 1178.994507,806.069885 
	C1169.052002,792.856079 1158.996704,779.727173 1149.055908,766.512085 
	C1145.191406,761.374634 1141.506348,756.102051 1137.740601,750.892334 
	C1149.003174,738.902588 1160.104248,727.274353 1170.989624,715.447571 
	C1183.945679,701.371155 1196.595093,687.011719 1209.598877,672.980103 
	C1225.478149,655.845520 1241.639648,638.972717 1257.583496,621.897339 
	C1274.711304,603.553772 1291.739502,585.116882 1308.789307,566.700562 
	C1320.721802,553.811646 1332.596313,540.868958 1344.535278,527.985962 
	C1361.905640,509.241974 1379.341187,490.558044 1396.691895,471.795959 
	C1412.111938,455.121704 1427.418091,438.342224 1442.842285,421.671906 
	C1456.390991,407.028198 1470.065674,392.500977 1483.626587,377.868469 
	C1499.752686,360.468079 1515.800659,342.995361 1531.912964,325.582184 
	C1544.783569,311.672363 1557.707275,297.811859 1570.593018,283.915924 
	C1578.809937,275.054596 1586.991333,266.160217 1595.204346,257.295166 
	C1607.933472,243.555588 1620.684448,229.836395 1633.410522,216.094116 
	C1649.982544,198.198944 1666.536133,180.286575 1683.104004,162.387482 
	C1695.573120,148.916672 1708.061279,135.463440 1720.524658,121.987228 
	C1736.782715,104.408073 1753.021484,86.811073 1769.274658,69.227257 
	C1785.631592,51.531078 1801.991699,33.837875 1818.359253,16.151527 
	C1822.842896,11.306677 1827.358643,6.491484 1831.929932,1.331391 
	C1861.659790,1.000000 1891.319580,1.000000 1921.000000,1.000000 
	C1921.000000,599.020935 1921.000000,1197.041870 1921.000000,1795.531372 
z"/>
<path fill="#000000" opacity="1.000000" stroke="none" 
	d="
M5.500037,1.000000 
	C17.732292,16.865223 29.384489,32.790462 41.216747,48.580780 
	C56.697708,69.240341 72.351585,89.770241 87.873184,110.399475 
	C99.951164,126.451920 111.948524,142.565079 123.967171,158.662109 
	C135.518463,174.133179 147.050964,189.618271 158.591858,205.097122 
	C169.724533,220.028442 180.820312,234.987427 192.001251,249.882507 
	C201.925629,263.103607 211.987823,276.221313 221.906021,289.446991 
	C228.020355,297.600342 233.914932,305.918365 240.021408,314.077759 
	C250.631409,328.254669 261.349213,342.350891 271.983856,356.509430 
	C280.933960,368.425232 289.795898,380.407288 298.758636,392.313538 
	C310.118622,407.404327 321.618958,422.389984 332.911987,437.530457 
	C341.999603,449.714172 350.796356,462.114502 359.853210,474.321503 
	C371.724915,490.322357 383.709869,506.239349 395.675049,522.170654 
	C407.088959,537.367981 418.566559,552.517456 429.967346,567.724609 
	C441.524567,583.140442 453.013153,598.607849 464.548798,614.039917 
	C472.600800,624.811707 480.668823,635.571533 488.752472,646.319580 
	C499.880005,661.114807 511.081848,675.854492 522.152832,690.691833 
	C531.832825,703.664978 541.306519,716.791992 550.996460,729.757568 
	C563.895935,747.017578 576.954773,764.158264 589.873596,781.403931 
	C600.966309,796.211792 611.938477,811.110046 623.001038,825.940674 
	C633.460022,839.962036 643.963745,853.949890 654.454468,867.947571 
	C662.619568,878.842163 670.814148,889.714661 678.960876,900.622986 
	C690.513550,916.091919 702.048462,931.574097 713.563965,947.070679 
	C722.734375,959.411377 731.847656,971.794434 741.026184,984.129089 
	C742.962769,986.731567 745.072632,989.205017 747.241028,991.910461 
	C743.618652,995.998718 740.172302,1000.067993 736.535400,1003.959167 
	C725.897583,1015.340637 715.145203,1026.615112 704.509766,1037.998779 
	C691.374634,1052.058228 678.295105,1066.169922 665.222351,1080.287598 
	C649.001343,1097.805176 632.826111,1115.365234 616.603821,1132.881714 
	C603.453735,1147.080933 590.249207,1161.229736 577.096497,1175.426392 
	C569.526611,1183.597168 562.034302,1191.839722 554.466858,1200.012817 
	C537.418091,1218.425903 520.334290,1236.806763 503.285217,1255.219604 
	C495.555725,1263.567383 487.902679,1271.985840 480.166779,1280.327759 
	C458.576141,1303.609375 436.947388,1326.855835 415.359436,1350.140015 
	C403.220032,1363.233276 391.110535,1376.354614 379.024963,1389.497559 
	C356.640442,1413.840698 334.306183,1438.230225 311.900208,1462.553589 
	C305.734772,1469.246460 299.338348,1475.726074 293.136261,1482.385864 
	C275.749878,1501.055664 258.394348,1519.754395 241.058502,1538.471191 
	C233.829102,1546.276611 226.718369,1554.192017 219.486221,1561.994995 
	C206.039612,1576.503052 192.522461,1590.945801 179.076401,1605.454346 
	C171.844482,1613.257568 164.741974,1621.180664 157.506393,1628.980347 
	C139.760254,1648.109619 121.949348,1667.178711 104.206543,1686.311035 
	C92.405212,1699.036621 80.701065,1711.852417 68.909164,1724.586792 
	C51.661171,1743.213379 34.393208,1761.821777 17.090364,1780.397339 
	C12.001852,1785.860352 6.766566,1791.186646 1.299270,1796.287842 
	C1.000000,1197.666626 1.000000,599.333313 1.000643,1.000000 
	C2.334216,1.000000 3.667145,1.000000 5.500037,1.000000 
z"/>
<path fill="#000000" opacity="1.000000" stroke="none" 
	d="
M170.468658,1798.000000 
	C172.755325,1794.411133 175.245743,1790.576294 178.310623,1787.274780 
	C193.631271,1770.771362 209.143219,1754.445557 224.508057,1737.982910 
	C236.842102,1724.767456 249.055908,1711.439819 261.334290,1698.172363 
	C278.012848,1680.149902 294.706482,1662.141357 311.385773,1644.119507 
	C332.013336,1621.831299 352.638153,1599.540527 373.254547,1577.241943 
	C393.390320,1555.462646 413.507111,1533.665649 433.646301,1511.889404 
	C442.454254,1502.365479 451.297424,1492.874023 460.123413,1483.366821 
	C477.283051,1464.882446 494.458984,1446.413208 511.596161,1427.908081 
	C527.819519,1410.389526 543.985840,1392.818237 560.207275,1375.297974 
	C573.243530,1361.217896 586.345642,1347.198853 599.379761,1333.116699 
	C615.408997,1315.798462 631.389160,1298.434814 647.407349,1281.106323 
	C660.008240,1267.474854 672.640320,1253.872070 685.248779,1240.247559 
	C705.697266,1218.151245 726.133484,1196.043579 746.583923,1173.948975 
	C755.358704,1164.468750 764.174805,1155.026733 772.939453,1145.537231 
	C788.696960,1128.476685 804.428772,1111.392456 820.178284,1094.324463 
	C820.624390,1093.841064 821.149475,1093.430542 822.135071,1092.533325 
	C826.575562,1098.354492 831.018982,1104.035889 835.307373,1109.832031 
	C843.583679,1121.018066 851.717346,1132.309814 860.013367,1143.481201 
	C868.054810,1154.309814 876.255920,1165.019653 884.333252,1175.821777 
	C899.070251,1195.530029 913.747498,1215.283081 928.487366,1234.989258 
	C941.490601,1252.373535 954.570557,1269.700317 967.569275,1287.087891 
	C978.234680,1301.354370 988.794189,1315.700195 999.465759,1329.962036 
	C1015.481140,1351.365601 1031.579102,1372.707153 1047.593872,1394.111084 
	C1061.175293,1412.262817 1074.612061,1430.523193 1088.253296,1448.629883 
	C1102.111450,1467.024658 1116.258423,1485.202393 1130.060425,1503.638916 
	C1141.910767,1519.468384 1153.364380,1535.594360 1165.160400,1551.465210 
	C1173.773560,1563.053467 1182.693115,1574.413452 1191.411377,1585.924316 
	C1199.631958,1596.778198 1207.790283,1607.679565 1215.935913,1618.589844 
	C1228.455811,1635.359131 1240.951782,1652.146118 1253.437988,1668.940674 
	C1261.646729,1679.981934 1269.741455,1691.108765 1278.029541,1702.089966 
	C1288.222534,1715.594849 1298.663818,1728.912964 1308.814941,1742.448853 
	C1321.144165,1758.888916 1333.313843,1775.449219 1345.450928,1792.031860 
	C1346.552368,1793.536743 1346.912598,1795.584106 1347.308594,1797.689697 
	C954.979126,1798.000000 562.958191,1798.000000 170.468658,1798.000000 
z"/>
<path fill="#000000" opacity="1.000000" stroke="none" 
	d="
M1662.531372,0.999990 
	C1661.907959,2.926893 1661.110107,5.115788 1659.670166,6.732928 
	C1654.809692,12.191853 1649.681763,17.411373 1644.727295,22.787989 
	C1629.646240,39.153885 1614.641357,55.590088 1599.523193,71.921577 
	C1589.222412,83.048935 1578.778687,94.043938 1568.404053,105.103058 
	C1553.310181,121.192818 1538.191650,137.259628 1523.142700,153.391327 
	C1515.921143,161.132385 1508.866333,169.028854 1501.680420,176.803619 
	C1488.854248,190.680878 1475.975098,204.509293 1463.139160,218.377655 
	C1455.382690,226.758057 1447.681030,235.189194 1439.928223,243.573105 
	C1427.352295,257.172607 1414.750732,270.748444 1402.167236,284.340973 
	C1389.781738,297.719543 1377.426025,311.125641 1365.019409,324.484619 
	C1351.480103,339.063416 1337.861572,353.568787 1324.342896,368.166687 
	C1308.486084,385.289429 1292.718018,402.494232 1276.877197,419.631836 
	C1264.126343,433.426636 1251.310547,447.161255 1238.549072,460.946381 
	C1222.243164,478.560425 1205.969971,496.204865 1189.669556,513.824036 
	C1177.034546,527.481262 1164.374390,541.115173 1151.734619,554.768066 
	C1135.277954,572.543945 1118.819092,590.317932 1102.382690,608.112671 
	C1090.718018,620.741394 1079.109009,633.421448 1067.418457,646.026062 
	C1066.015259,647.538940 1064.256592,648.721924 1062.410522,650.268921 
	C1058.477051,645.081787 1054.719849,640.186707 1051.025879,635.244446 
	C1039.535767,619.871948 1028.083740,604.471008 1016.589600,589.101562 
	C1007.464905,576.900513 998.312744,564.719910 989.149414,552.547791 
	C978.792725,538.790283 968.345825,525.100342 958.054932,511.293884 
	C945.645203,494.644653 933.386841,477.882690 921.010254,461.208618 
	C908.656067,444.564758 896.243652,427.964111 883.843994,411.354126 
	C869.188538,391.722168 854.567993,372.063843 839.842590,352.484528 
	C825.223022,333.046051 810.380981,313.774231 795.840515,294.277191 
	C781.041809,274.433807 766.590088,254.331589 751.801331,234.480637 
	C740.174133,218.873474 728.215637,203.513519 716.495422,187.975021 
	C705.275513,173.099808 694.173889,158.135345 683.018738,143.211243 
	C671.479614,127.773399 659.929871,112.343552 648.401123,96.897972 
	C637.259216,81.970779 626.153015,67.016983 615.003967,52.095181 
	C603.511414,36.713688 591.981934,21.359791 580.481934,5.983845 
	C579.412903,4.554453 578.439819,3.053242 577.711060,1.292688 
	C939.354248,1.000000 1300.708496,1.000000 1662.531372,0.999990 
z"/>
<path fill="#000000" opacity="1.000000" stroke="none" 
	d="
M584.000000,568.002625 
	C575.421387,556.352173 566.856323,545.079590 558.331360,533.776855 
	C547.207825,519.028870 536.101196,504.268036 525.016541,489.490784 
	C518.989258,481.455597 513.030273,473.369141 507.026703,465.316071 
	C494.516205,448.534668 481.970306,431.779602 469.488770,414.976654 
	C459.260254,401.206818 449.200867,387.310394 438.889893,373.602905 
	C426.990967,357.784302 414.814850,342.174164 402.918518,326.353607 
	C394.656799,315.366608 386.754089,304.110107 378.529694,293.094482 
	C367.254242,277.992218 355.782135,263.036957 344.476898,247.956802 
	C335.252106,235.651749 326.226471,223.197037 316.970001,210.916138 
	C306.785614,197.404083 296.341187,184.087631 286.190155,170.550888 
	C276.677521,157.865463 267.399078,145.004410 258.020721,132.218338 
	C256.347137,129.936661 254.688965,127.643700 252.424164,124.532310 
	C254.796631,124.287056 256.184937,124.018242 257.573303,124.017914 
	C342.072784,123.997948 426.572296,124.012527 511.071747,123.948158 
	C514.042603,123.945892 515.518921,125.056213 517.310364,127.478157 
	C531.700195,146.932465 546.445740,166.123123 560.946899,185.495911 
	C573.068176,201.689316 584.952576,218.059906 597.041626,234.277664 
	C608.377197,249.484528 619.885376,264.562561 631.238525,279.756409 
	C639.593079,290.937317 647.729980,302.281433 656.126648,313.430267 
	C666.961365,327.816284 678.006409,342.043701 688.869629,356.408386 
	C696.981384,367.134705 704.944153,377.973572 712.981323,388.756348 
	C722.488892,401.511902 731.999573,414.265137 741.518738,427.012024 
	C752.667175,441.940552 763.832275,456.856567 774.979004,471.786377 
	C787.405945,488.430725 799.801270,505.098755 812.245972,521.729858 
	C822.442932,535.356995 832.729858,548.916992 842.908447,562.557861 
	C855.299866,579.164185 867.627686,595.817993 879.967468,612.462708 
	C888.376282,623.805115 896.686707,635.221191 905.170837,646.506897 
	C915.793762,660.637695 926.586670,674.640686 937.237000,688.751099 
	C946.535950,701.071167 955.743591,713.460144 964.983032,725.824951 
	C976.447510,741.167358 987.912231,756.509705 999.360107,771.864502 
	C1007.587708,782.899963 1015.759521,793.977051 1024.006958,804.997559 
	C1036.531006,821.732849 1049.135864,838.407837 1061.638794,855.158875 
	C1075.803467,874.136292 1089.829468,893.217407 1104.036865,912.162659 
	C1114.936768,926.697510 1126.063599,941.061646 1137.015137,955.557983 
	C1145.023438,966.158447 1152.919434,976.844055 1160.850342,987.502930 
	C1170.345825,1000.264404 1179.795166,1013.060425 1189.319336,1025.800415 
	C1200.479736,1040.729126 1211.691772,1055.619385 1222.895264,1070.515747 
	C1233.244385,1084.276123 1243.684692,1097.968506 1253.949829,1111.791138 
	C1263.398560,1124.514526 1272.541992,1137.465454 1282.044434,1150.147827 
	C1296.920776,1170.002441 1312.047852,1189.669312 1326.947388,1209.506592 
	C1335.103271,1220.365234 1342.920776,1231.477661 1351.052490,1242.354858 
	C1361.565308,1256.416992 1372.287476,1270.322266 1382.830078,1284.362305 
	C1392.943115,1297.830322 1402.887695,1311.424927 1413.006226,1324.888916 
	C1423.260620,1338.533569 1433.703491,1352.036499 1443.940430,1365.693970 
	C1453.360107,1378.261108 1462.584473,1390.974609 1471.951904,1403.581177 
	C1484.506592,1420.477539 1497.120850,1437.329590 1509.700684,1454.207031 
	C1524.170410,1473.619995 1538.572021,1493.083984 1553.111572,1512.444458 
	C1566.745239,1530.598267 1580.588745,1548.594604 1594.207642,1566.759277 
	C1602.455078,1577.759521 1610.356079,1589.019287 1618.582642,1600.035278 
	C1630.828247,1616.433472 1643.256104,1632.695435 1655.541626,1649.064087 
	C1661.174927,1656.569580 1666.670410,1664.178711 1672.174438,1671.780029 
	C1672.689209,1672.490845 1672.815186,1673.483154 1673.354858,1675.000000 
	C1671.087158,1675.000000 1669.336304,1675.000000 1667.585449,1675.000000 
	C1584.085938,1675.000000 1500.586304,1674.957031 1417.087158,1675.123291 
	C1412.784180,1675.131836 1410.289429,1673.341064 1408.046143,1670.361572 
	C1396.033569,1654.406128 1384.004028,1638.463135 1372.070801,1622.448242 
	C1362.690674,1609.859741 1353.498291,1597.131348 1344.119995,1584.541382 
	C1333.184814,1569.860962 1322.122192,1555.275391 1311.144897,1540.626221 
	C1303.079346,1529.862549 1295.062622,1519.062256 1287.022705,1508.279175 
	C1277.490845,1495.494629 1267.957886,1482.710815 1258.424805,1469.927246 
	C1250.289673,1459.018311 1242.153320,1448.110229 1234.018188,1437.201294 
	C1221.626587,1420.584839 1209.217041,1403.981934 1196.850342,1387.347046 
	C1186.492554,1373.414673 1176.277100,1359.375732 1165.831177,1345.510132 
	C1153.920654,1329.700439 1141.774658,1314.068481 1129.827148,1298.286499 
	C1121.807861,1287.693481 1113.960938,1276.969971 1106.027466,1266.311890 
	C1095.536377,1252.217896 1085.041504,1238.126709 1074.538330,1224.041748 
	C1064.369751,1210.405640 1054.232422,1196.746094 1044.001099,1183.157227 
	C1033.734009,1169.520996 1023.276306,1156.027344 1013.071960,1142.344604 
	C1003.597107,1129.639893 994.447571,1116.692505 984.970337,1103.989746 
	C974.110901,1089.434082 963.008667,1075.059814 952.086792,1060.550293 
	C944.000732,1049.808105 936.047485,1038.966187 928.011536,1028.186157 
	C918.501404,1015.428589 908.963867,1002.691345 899.442200,989.942322 
	C891.298584,979.038391 883.157227,968.132751 875.020996,957.223328 
	C863.597656,941.906494 852.157471,926.602112 840.766846,911.260986 
	C832.422424,900.022522 824.238281,888.664062 815.815979,877.484619 
	C804.979248,863.100342 793.915100,848.887573 783.065002,834.513245 
	C775.459778,824.437805 768.082397,814.190735 760.542725,804.065308 
	C750.648499,790.777954 740.704163,777.527710 730.763733,764.274841 
	C722.593201,753.381592 714.400330,742.505066 706.210999,731.626038 
	C695.101868,716.868286 683.961487,702.134033 672.882385,687.353760 
	C664.888672,676.689453 656.979980,665.961426 649.021118,655.270935 
	C639.520691,642.509644 629.988647,629.772034 620.505188,616.998230 
	C612.305664,605.953918 604.191284,594.846130 595.966797,583.820557 
	C592.075745,578.604187 588.015137,573.514282 584.000000,568.002625 
z"/>
</svg>